<?xml version="1.0" standalone="yes"?>
<svg xmlns="http://www.w3.org/2000/svg" width="878" height="850">
<path style="fill:#999999; stroke:none;" d="M0 0L0 850L1 850L1 556L17 556L17 834L454 834L454 566L491 566L491 565L453 565L453 574L344 574L344 406L489 406L489 390L488 390L488 405L340 405L340 304L121 304L52 304L16 303L17 332L17 385L17 555L1 555L1 300L11 301L11 300L1 299L1 1L328 1L326 13L327 13L329 1L540 1L538 13L539 13L541 1L877 1L877 293L867 295L877 294L877 582L592 582L593 572L590 572L591 582L576 582L576 583L878 583L878 0L0 0z"/>
<path style="fill:#a8a8a8; stroke:none;" d="M1 1L17 17L1 1z"/>
<path style="fill:#bfbfbf; stroke:none;" d="M2 1L17 17L1 2L1 299C5.87078 298.997 12.9306 299.368 15.9722 294.61C18.6454 290.428 17 281.797 17 277L17 233L17 17L256 17L305 17C309.651 17 319.416 18.8489 323.301 15.9722C327.393 12.9424 327.959 5.58411 328 1L2 1M329 1C329.003 5.78546 328.671 11.8741 332.638 15.3966C338.786 20.8553 360.937 17 369 17L496 17L524 17C527.2 17 532.568 17.9958 535.301 15.9722C539.393 12.9424 539.959 5.58398 540 1L329 1M541 1C541.003 5.87073 540.632 12.9306 545.39 15.9722C549.936 18.8779 559.763 17 565 17L615 17L804 17L842 17C847.153 17 854.11 18.1997 859 16.3966C865.152 14.1282 871.326 6.21552 875 1L541 1z"/>
<path style="fill:#a8a8a8; stroke:none;" d="M860 17L877 1L860 17z"/>
<path style="fill:#bfbfbf; stroke:none;" d="M876 2C871.433 6.56702 863.883 11.8176 861.603 18C859.8 22.8904 861 29.8469 861 35L861 72L861 226L861 272C861 276.805 859.326 285.537 862.603 289.467C866.089 293.646 872.15 292.999 877 293L877 88L877 29L876 2z"/>
<path style="fill:#a8a8a8; stroke:none;" d="M327 8L328 9L327 8M539 8L540 9L539 8M326 10L327 11L326 10M327 11L332 18L333 17L331 16L332 14L330 14L331 12L330 10L327 11M538 10L539 11L538 10M539 11L545 17L545 16L544 14L542 14L543 12L541 12L542 10L539 11z"/>
<path style="fill:#999999; stroke:none;" d="M329 11L330 12L329 11M541 11L542 12L541 11z"/>
<path style="fill:#a8a8a8; stroke:none;" d="M325 12L325 14L327 14L325 12z"/>
<path style="fill:#bfbfbf; stroke:none;" d="M327 12C322.149 25.3096 325 42.9382 325 57L325 151L325 183C325 186.435 323.895 192.512 326.179 195.397C329.554 199.658 345.865 197 351 197L351 206L359 206L354 189L332 189L332 69C332 51.2205 335.758 28.5886 329 12L327 12z"/>
<path style="fill:#a8a8a8; stroke:none;" d="M537 12L537 14L539 14L537 12z"/>
<path style="fill:#bfbfbf; stroke:none;" d="M539 12C533.017 28.4155 537 51.6082 537 69L537 190L511 189L462 189L462 197L540 197L539 192L541 197C556.378 197 584.22 202.834 594 189L544 189L544 68C544 50.8358 548.012 27.8155 541 12L539 12z"/>
<path style="fill:#999999; stroke:none;" d="M330 13L331 14L330 13M542 13L543 14L542 13M325 14L326 15L325 14M537 14L538 15L537 14z"/>
<path style="fill:#a8a8a8; stroke:none;" d="M324.667 15.3333L325.333 15.6667L324.667 15.3333z"/>
<path style="fill:#999999; stroke:none;" d="M331 15L332 16L331 15z"/>
<path style="fill:#a8a8a8; stroke:none;" d="M536.667 15.3333L537.333 15.6667L536.667 15.3333z"/>
<path style="fill:#999999; stroke:none;" d="M543 15L544 16L543 15M324 16L292 17L228 17L17 17L17 296L343 296L343 300L344 300L344 296L351 296L351 291L350 291L350 295L18 295L18 18L324 18L324 198L350 198L350 206L351 206L351 197L325 197L325 69L325 33L324 16M536 16C517.125 21.5795 490.721 17 471 17L332 17L332 189L354 189L354 194L355 194L355 189L377 189L377 188L333 188L333 18L536 18L536 188L462 188L462 189L537 189L537 67L537 32L536 16z"/>
<path style="fill:#a8a8a8; stroke:none;" d="M324 17L325 18L324 17M536 17L537 18L536 17z"/>
<path style="fill:#999999; stroke:none;" d="M544 17L544 189L595 189L595 200L596 200L596 188L545 188L545 18L860 18L860 289L596 289L596 285L595 285L595 290L780 290L834 290L864 292L864 291C859.259 285.979 861 277.51 861 271L861 220L861 17L544 17z"/>
<path style="fill:#f2f2f2; stroke:none;" d="M18 18L18 295L350 295L350 291L266 291C266 245.249 303.844 206.031 350 206L350 198L323 198C327.922 181.349 324 158.386 324 141L324 18L18 18M333 18L333 188L377 188L377 104C422.622 104.378 461.995 141.931 462 188L536 188L536 18L333 18M545 18L545 188L597 188L596 200C642.831 200 680 238.632 680 285L652 284L596 284L596 289L860 289L860 18L545 18z"/>
<path style="fill:#e4e4e4; stroke:none;" d="M377 104L377 169C377 171.007 376.849 192.275 380.992 187.338C383.688 184.125 382 174.979 382 171L382 125C382 119.347 379.759 108.398 385 105L377 104z"/>
<path style="fill:#bfbfbf; stroke:none;" d="M382.667 105.333L383.333 105.667L382.667 105.333z"/>
<path style="fill:#a8a8a8; stroke:none;" d="M384 105L384 106L388 106L384 105z"/>
<path style="fill:#bfbfbf; stroke:none;" d="M388 105L388 106L393 107L393 106L388 105z"/>
<path style="fill:#e4e4e4; stroke:none;" d="M391.667 105.333L392.333 105.667L391.667 105.333z"/>
<path style="fill:#f2f2f2; stroke:none;" d="M382 106L382 188L460 188C460 144.666 425.783 107.88 382 106z"/>
<path style="fill:#e4e4e4; stroke:none;" d="M387 106L387 107L390 107L387 106z"/>
<path style="fill:#a8a8a8; stroke:none;" d="M393.667 106.333L394.333 106.667L393.667 106.333z"/>
<path style="fill:#bfbfbf; stroke:none;" d="M395 106L398 108L395 106z"/>
<path style="fill:#e4e4e4; stroke:none;" d="M397 106L398 107L397 106M394.667 107.333L395.333 107.667L394.667 107.333z"/>
<path style="fill:#a8a8a8; stroke:none;" d="M398 107L399 108L398 107z"/>
<path style="fill:#bfbfbf; stroke:none;" d="M399 107L401 109L401 107L399 107z"/>
<path style="fill:#e4e4e4; stroke:none;" d="M401 107L402 108L401 107M398.667 108.333L399.333 108.667L398.667 108.333z"/>
<path style="fill:#a8a8a8; stroke:none;" d="M401.667 108.333L402.333 108.667L401.667 108.333z"/>
<path style="fill:#bfbfbf; stroke:none;" d="M403 108L403 110L405 110L403 108z"/>
<path style="fill:#e4e4e4; stroke:none;" d="M404 108L405 109L404 108M402 109L403 110L402 109z"/>
<path style="fill:#a8a8a8; stroke:none;" d="M405 109L406 110L405 109z"/>
<path style="fill:#bfbfbf; stroke:none;" d="M406 109L407 110L406 109z"/>
<path style="fill:#e4e4e4; stroke:none;" d="M407 109L405 110L405 111L407 109z"/>
<path style="fill:#a8a8a8; stroke:none;" d="M407 110L408 111L407 110z"/>
<path style="fill:#bfbfbf; stroke:none;" d="M408 110L410 112L408 110z"/>
<path style="fill:#e4e4e4; stroke:none;" d="M409 110L410 111L409 110M408 111L409 112L408 111z"/>
<path style="fill:#a8a8a8; stroke:none;" d="M410 111L411 112L410 111z"/>
<path style="fill:#bfbfbf; stroke:none;" d="M411.333 111.667L411.667 112.333L411.333 111.667z"/>
<path style="fill:#e4e4e4; stroke:none;" d="M412 111L413 112L412 111M410 112L411 113L410 112z"/>
<path style="fill:#a8a8a8; stroke:none;" d="M412 112L413 113L412 112z"/>
<path style="fill:#bfbfbf; stroke:none;" d="M413 112L414 113L413 112z"/>
<path style="fill:#e4e4e4; stroke:none;" d="M414 112L413 114L414 112z"/>
<path style="fill:#a8a8a8; stroke:none;" d="M414 113L415 114L414 113z"/>
<path style="fill:#bfbfbf; stroke:none;" d="M415 113L416 114L415 113z"/>
<path style="fill:#e4e4e4; stroke:none;" d="M416 113L415 115L416 113z"/>
<path style="fill:#a8a8a8; stroke:none;" d="M416 114L417 115L416 114z"/>
<path style="fill:#bfbfbf; stroke:none;" d="M417 114L423 118L423 117L417 114z"/>
<path style="fill:#e4e4e4; stroke:none;" d="M418 114L419 115L418 114M417 115L418 116L417 115M421 116L422 117L421 116M420 117L421 118L420 117M423 117L422 118L422 119L423 120L424 120L425 119L425 118L423 117z"/>
<path style="fill:#a8a8a8; stroke:none;" d="M423 118L424 119L423 118z"/>
<path style="fill:#bfbfbf; stroke:none;" d="M424.667 119.333L425.333 119.667L424.667 119.333z"/>
<path style="fill:#e4e4e4; stroke:none;" d="M425 120L425 121L429 122L429 121L425 120z"/>
<path style="fill:#a8a8a8; stroke:none;" d="M426 120L427 121L426 120z"/>
<path style="fill:#bfbfbf; stroke:none;" d="M427 121L428 122L427 121M428 122L428 123L431 124L428 122z"/>
<path style="fill:#e4e4e4; stroke:none;" d="M429 123L430 124L429 123M431 123L430 124L443 137L431 123z"/>
<path style="fill:#a8a8a8; stroke:none;" d="M431 124L432 125L431 124z"/>
<path style="fill:#bfbfbf; stroke:none;" d="M432 125L433 126L432 125M433 126L434 127L433 126M434 127L435 128L434 127M435 128L436 129L435 128M436 129L437 130L436 129M437 130L441 134L437 130M441 134L442 135L441 134M442 135L443 136L442 135M443 136L446 142L447 142L443 136z"/>
<path style="fill:#e4e4e4; stroke:none;" d="M444 137L445 138L444 137M443 138L444 139L443 138M445 138L446 139L445 138M444 139L445 140L444 139M446 139L447 140L446 139M445 140L446 141L445 140M447 141L446 142L446 143L447 144L448 144L449 143L449 142L447 141z"/>
<path style="fill:#a8a8a8; stroke:none;" d="M447 142L448 143L447 142z"/>
<path style="fill:#bfbfbf; stroke:none;" d="M448.333 143.667L448.667 144.333L448.333 143.667z"/>
<path style="fill:#e4e4e4; stroke:none;" d="M449 144L448 145L448 146L449 147L450 147L451 146L451 145L449 144z"/>
<path style="fill:#a8a8a8; stroke:none;" d="M449 145L450 146L449 145z"/>
<path style="fill:#bfbfbf; stroke:none;" d="M450 146L455 157L456 157L450 146z"/>
<path style="fill:#e4e4e4; stroke:none;" d="M451 147L452 148L451 147M450 148L451 149L450 148M452 149L453 150L452 149M451 150L452 151L451 150M453 151L454 152L453 151M452 152L453 153L452 152M454 153L455 154L454 153M453 154L454 155L453 154M455 155L456 156L455 155M454 156L455 157L454 156z"/>
<path style="fill:#a8a8a8; stroke:none;" d="M455 157L456 158L455 157z"/>
<path style="fill:#e4e4e4; stroke:none;" d="M456 157L455 160L456 157z"/>
<path style="fill:#bfbfbf; stroke:none;" d="M455 158L456 159L455 158M456 159L457 160L456 159z"/>
<path style="fill:#a8a8a8; stroke:none;" d="M456 160L457 161L456 160z"/>
<path style="fill:#e4e4e4; stroke:none;" d="M457 160L456 163L457 163L457 160z"/>
<path style="fill:#bfbfbf; stroke:none;" d="M457 161L458 162L457 161z"/>
<path style="fill:#a8a8a8; stroke:none;" d="M457 162L458 163L457 162z"/>
<path style="fill:#bfbfbf; stroke:none;" d="M457 163L459 166L457 163z"/>
<path style="fill:#e4e4e4; stroke:none;" d="M458.333 163.667L458.667 164.333L458.333 163.667M457 165L458 166L457 165z"/>
<path style="fill:#a8a8a8; stroke:none;" d="M458 166L459 167L458 166z"/>
<path style="fill:#bfbfbf; stroke:none;" d="M458 167L459 170L460 170L458 167z"/>
<path style="fill:#e4e4e4; stroke:none;" d="M459 167L460 168L459 167M458.333 168.667L458.667 169.333L458.333 168.667z"/>
<path style="fill:#a8a8a8; stroke:none;" d="M459 170L460 171L459 170z"/>
<path style="fill:#bfbfbf; stroke:none;" d="M459 171L460 175L461 175L459 171z"/>
<path style="fill:#e4e4e4; stroke:none;" d="M460.333 171.667L460.667 172.333L460.333 171.667M459 173L459 176L460 176L459 173z"/>
<path style="fill:#a8a8a8; stroke:none;" d="M460.333 175.667L460.667 176.333L460.333 175.667z"/>
<path style="fill:#bfbfbf; stroke:none;" d="M460 177L461 188L462 188L460 177z"/>
<path style="fill:#e4e4e4; stroke:none;" d="M461 177L461 180L462 180L461 177M460 182L460 188L461 188L460 182z"/>
<path style="fill:#bfbfbf; stroke:none;" d="M377 188L355 189C356.648 199.645 368.842 197 377 197L377 188M381 188L382 189L381 188z"/>
<path style="fill:#a8a8a8; stroke:none;" d="M382 188L382 189L461 189L461 197L378 197L378 189L377 189L377 198L462 198L462 188L382 188z"/>
<path style="fill:#e4e4e4; stroke:none;" d="M596 188L597 189L596 188z"/>
<path style="fill:#a8a8a8; stroke:none;" d="M331 189L326 195L331 189z"/>
<path style="fill:#f2f2f2; stroke:none;" d="M378 189L378 197L461 197L461 189L378 189z"/>
<path style="fill:#a8a8a8; stroke:none;" d="M536 189L537 190L536 189M543 189L541 192L543 189M594 189L587 197C590.435 195.392 594.086 193.074 594 189M537 190L539 192L537 190z"/>
<path style="fill:#bfbfbf; stroke:none;" d="M594 191L588 200L595 200L594 191z"/>
<path style="fill:#a8a8a8; stroke:none;" d="M539.667 192.333L540.333 192.667L539.667 192.333M355 193L359 198L355 193z"/>
<path style="fill:#999999; stroke:none;" d="M540 193L540 197L462 197L462 198L553 198C561.803 198 579.89 194.613 587 200L588 200C587.018 195.417 580.88 197 577 197L541 197L540 193z"/>
<path style="fill:#a8a8a8; stroke:none;" d="M353 194L351 197L353 194M325.333 195.667L325.667 196.333L325.333 195.667z"/>
<path style="fill:#bfbfbf; stroke:none;" d="M323 197L324 198L323 197z"/>
<path style="fill:#999999; stroke:none;" d="M359 197L359 207L360 207L360 198L377 198L359 197z"/>
<path style="fill:#f2f2f2; stroke:none;" d="M360 198L360 295L490 295L489 331L489 380L490 406L344 406L344 574L453 574L452 565L491 565C491.005 518.931 530.378 481.378 576 481L576 565L587 565L587 198L360 198z"/>
<path style="fill:#a8a8a8; stroke:none;" d="M587 200L587 285L596 285L596 284L588 284L588 201L595 201L595 280L596 280L596 200L587 200z"/>
<path style="fill:#bfbfbf; stroke:none;" d="M596 200L596 201L608 202L596 200z"/>
<path style="fill:#e4e4e4; stroke:none;" d="M606.667 200.333L607.333 200.667L606.667 200.333z"/>
<path style="fill:#f2f2f2; stroke:none;" d="M588 201L588 284L595 284L595 201L588 201z"/>
<path style="fill:#e4e4e4; stroke:none;" d="M596 201L596 202L603 202L596 201z"/>
<path style="fill:#a8a8a8; stroke:none;" d="M608.667 201.333L609.333 201.667L608.667 201.333z"/>
<path style="fill:#bfbfbf; stroke:none;" d="M610 201L613 203L610 201z"/>
<path style="fill:#e4e4e4; stroke:none;" d="M613 201L614 202L613 201z"/>
<path style="fill:#f2f2f2; stroke:none;" d="M596 202L596 280L679 280C677.069 269.598 676.18 259.803 671.691 250C657.855 219.782 628.71 202 596 202z"/>
<path style="fill:#e4e4e4; stroke:none;" d="M609.667 202.333L610.333 202.667L609.667 202.333z"/>
<path style="fill:#a8a8a8; stroke:none;" d="M613.667 202.333L614.333 202.667L613.667 202.333z"/>
<path style="fill:#bfbfbf; stroke:none;" d="M615 202L618 204L615 202z"/>
<path style="fill:#e4e4e4; stroke:none;" d="M617.667 202.333L618.333 202.667L617.667 202.333M615 203L616 204L615 203z"/>
<path style="fill:#a8a8a8; stroke:none;" d="M618 203L619 204L618 203z"/>
<path style="fill:#bfbfbf; stroke:none;" d="M619 203L621 205L621 203L619 203z"/>
<path style="fill:#e4e4e4; stroke:none;" d="M621 203L622 204L621 203M619 204L620 205L619 204z"/>
<path style="fill:#a8a8a8; stroke:none;" d="M621.667 204.333L622.333 204.667L621.667 204.333z"/>
<path style="fill:#bfbfbf; stroke:none;" d="M623.333 204.667L623.667 205.333L623.333 204.667z"/>
<path style="fill:#e4e4e4; stroke:none;" d="M624 204L625 205L624 204M622 205L623 206L622 205z"/>
<path style="fill:#a8a8a8; stroke:none;" d="M624.667 205.333L625.333 205.667L624.667 205.333z"/>
<path style="fill:#e4e4e4; stroke:none;" d="M626 205L625 207L626 205M340 206L340 207L343 207L340 206z"/>
<path style="fill:#bfbfbf; stroke:none;" d="M341 207L341 208L350 208L350 206L341 207z"/>
<path style="fill:#a8a8a8; stroke:none;" d="M350 206L350 286L351 286L351 207L359 207L359 290L351 290L351 291L360 291L360 227C360 216.348 363.292 206.01 350 206z"/>
<path style="fill:#bfbfbf; stroke:none;" d="M626 206L627 207L626 206z"/>
<path style="fill:#a8a8a8; stroke:none;" d="M627 206L628 207L627 206z"/>
<path style="fill:#bfbfbf; stroke:none;" d="M628 206L629 207L628 206z"/>
<path style="fill:#e4e4e4; stroke:none;" d="M629 206L627 207L627 208L629 206M333.667 207.333L334.333 207.667L333.667 207.333z"/>
<path style="fill:#bfbfbf; stroke:none;" d="M334 208L334 209L338 208L334 208z"/>
<path style="fill:#a8a8a8; stroke:none;" d="M338 207L338 208L341 208L338 207z"/>
<path style="fill:#f2f2f2; stroke:none;" d="M351 207L351 290L359 290L359 207L351 207z"/>
<path style="fill:#a8a8a8; stroke:none;" d="M629 207L630 208L629 207z"/>
<path style="fill:#bfbfbf; stroke:none;" d="M630 207L632 209L630 207z"/>
<path style="fill:#e4e4e4; stroke:none;" d="M631 207L632 208L631 207M329 208L330 209L329 208z"/>
<path style="fill:#bfbfbf; stroke:none;" d="M330 208L330 210L332 208L330 208z"/>
<path style="fill:#a8a8a8; stroke:none;" d="M332.667 208.333L333.333 208.667L332.667 208.333z"/>
<path style="fill:#e4e4e4; stroke:none;" d="M337.667 208.333L338.333 208.667L337.667 208.333z"/>
<path style="fill:#f2f2f2; stroke:none;" d="M268 286L350 286L350 208C307.529 208 268.029 242.06 268 286z"/>
<path style="fill:#e4e4e4; stroke:none;" d="M630 208L631 209L630 208z"/>
<path style="fill:#a8a8a8; stroke:none;" d="M632 208L633 209L632 208z"/>
<path style="fill:#e4e4e4; stroke:none;" d="M633 208L632 210L633 208M325 209L326 210L325 209z"/>
<path style="fill:#bfbfbf; stroke:none;" d="M326 209L326 211L328 209L326 209z"/>
<path style="fill:#a8a8a8; stroke:none;" d="M328.667 209.333L329.333 209.667L328.667 209.333z"/>
<path style="fill:#e4e4e4; stroke:none;" d="M331.667 209.333L332.333 209.667L331.667 209.333z"/>
<path style="fill:#bfbfbf; stroke:none;" d="M633 209L633 210L637 211L637 210L633 209z"/>
<path style="fill:#e4e4e4; stroke:none;" d="M635 209L636 210L635 209M322 210L323 211L322 210z"/>
<path style="fill:#bfbfbf; stroke:none;" d="M323.333 210.667L323.667 211.333L323.333 210.667z"/>
<path style="fill:#a8a8a8; stroke:none;" d="M324.667 210.333L325.333 210.667L324.667 210.333z"/>
<path style="fill:#e4e4e4; stroke:none;" d="M327.667 210.333L328.333 210.667L327.667 210.333M634 210L635 211L634 210M637 210L636 212L637 210M319 211L320 212L319 211z"/>
<path style="fill:#bfbfbf; stroke:none;" d="M320.333 211.667L320.667 212.333L320.333 211.667z"/>
<path style="fill:#a8a8a8; stroke:none;" d="M321.667 211.333L322.333 211.667L321.667 211.333z"/>
<path style="fill:#e4e4e4; stroke:none;" d="M324 211L325 212L324 211z"/>
<path style="fill:#a8a8a8; stroke:none;" d="M637 211L638 212L637 211z"/>
<path style="fill:#bfbfbf; stroke:none;" d="M638 211L639 212L638 211z"/>
<path style="fill:#e4e4e4; stroke:none;" d="M317 212L319 214L317 212z"/>
<path style="fill:#bfbfbf; stroke:none;" d="M318 212L319 213L318 212z"/>
<path style="fill:#a8a8a8; stroke:none;" d="M319 212L320 213L319 212z"/>
<path style="fill:#e4e4e4; stroke:none;" d="M321 212L322 213L321 212M638 212L638 213L641 213L641 212L638 212z"/>
<path style="fill:#a8a8a8; stroke:none;" d="M639 212L640 213L639 212z"/>
<path style="fill:#e4e4e4; stroke:none;" d="M315 213L317 215L315 213z"/>
<path style="fill:#bfbfbf; stroke:none;" d="M316.667 213.333L317.333 213.667L316.667 213.333M640.667 213.333L641.333 213.667L640.667 213.333z"/>
<path style="fill:#e4e4e4; stroke:none;" d="M642 213L641 214L641 215L642 216L643 216L644 215L644 214L642 213z"/>
<path style="fill:#bfbfbf; stroke:none;" d="M313.333 214.667L313.667 215.333L313.333 214.667z"/>
<path style="fill:#a8a8a8; stroke:none;" d="M314 214L315 215L314 214z"/>
<path style="fill:#bfbfbf; stroke:none;" d="M315 214L316 215L315 214z"/>
<path style="fill:#a8a8a8; stroke:none;" d="M642 214L643 215L642 214z"/>
<path style="fill:#e4e4e4; stroke:none;" d="M310 218L311 218L310 216L313 217C311.047 215.195 309.986 215.267 310 218z"/>
<path style="fill:#a8a8a8; stroke:none;" d="M312 215L313 216L312 215z"/>
<path style="fill:#e4e4e4; stroke:none;" d="M314 215L315 216L314 215z"/>
<path style="fill:#bfbfbf; stroke:none;" d="M643.667 215.333L644.333 215.667L643.667 215.333z"/>
<path style="fill:#e4e4e4; stroke:none;" d="M645 215L644 216L647 219L648 218L645 215z"/>
<path style="fill:#a8a8a8; stroke:none;" d="M310 216L311 217L310 216z"/>
<path style="fill:#bfbfbf; stroke:none;" d="M311 216L312 217L311 216z"/>
<path style="fill:#a8a8a8; stroke:none;" d="M645 216L646 217L645 216z"/>
<path style="fill:#e4e4e4; stroke:none;" d="M307 217L309 219L307 217z"/>
<path style="fill:#bfbfbf; stroke:none;" d="M308.667 217.333L309.333 217.667L308.667 217.333M646 217L647 218L646 217z"/>
<path style="fill:#e4e4e4; stroke:none;" d="M305 218L305 221L306 221L305 218z"/>
<path style="fill:#bfbfbf; stroke:none;" d="M306 218L306 220L308 218L306 218M647 218L647 219L662 233C658.854 226.935 653.217 220.899 647 218z"/>
<path style="fill:#a8a8a8; stroke:none;" d="M305 219L306 220L305 219z"/>
<path style="fill:#e4e4e4; stroke:none;" d="M650 219L651 220L650 219M302 220L301 224L302 224L302 220z"/>
<path style="fill:#bfbfbf; stroke:none;" d="M302 222L305 220L302 222z"/>
<path style="fill:#e4e4e4; stroke:none;" d="M649 220L650 221L649 220M651 220L652 221L651 220M650 221L651 222L650 221M652 221L653 222L652 221z"/>
<path style="fill:#bfbfbf; stroke:none;" d="M300 222L298 225L300 222z"/>
<path style="fill:#a8a8a8; stroke:none;" d="M301 222L302 223L301 222z"/>
<path style="fill:#e4e4e4; stroke:none;" d="M651 222L652 223L651 222M653 222L654 223L653 222M652 223L653 224L652 223M654 223L655 224L654 223M297 224L295 227L299 226L299 225L297 224M299 224L300 225L299 224M653 224L654 225L653 224M655 224L656 225L655 224z"/>
<path style="fill:#a8a8a8; stroke:none;" d="M297 225L298 226L297 225z"/>
<path style="fill:#e4e4e4; stroke:none;" d="M654 225L655 226L654 225M656 225L657 226L656 225z"/>
<path style="fill:#bfbfbf; stroke:none;" d="M296 226L297 227L296 226z"/>
<path style="fill:#e4e4e4; stroke:none;" d="M655 226L656 227L655 226M657 226L658 227L657 226z"/>
<path style="fill:#bfbfbf; stroke:none;" d="M283 241L284 241L296 228C290.817 227.887 285.025 236.656 283 241z"/>
<path style="fill:#e4e4e4; stroke:none;" d="M656 227L657 228L656 227M658 227L659 228L658 227M657 228L658 229L657 228M293 229L294 230L293 229M658 229L659 230L658 229M292 230L293 231L292 230M290 231L291 232L290 231M661 231L662 232L661 231M289 232L290 233L289 232M662 232L661 233L661 234L662 235L663 235L664 234L664 233L662 232M288 233L289 234L288 233z"/>
<path style="fill:#a8a8a8; stroke:none;" d="M662 233L663 234L662 233z"/>
<path style="fill:#e4e4e4; stroke:none;" d="M287 234L288 235L287 234z"/>
<path style="fill:#bfbfbf; stroke:none;" d="M663 234L673 252L674 252L663 234z"/>
<path style="fill:#e4e4e4; stroke:none;" d="M286 235L287 236L286 235M285 236L286 237L285 236M287 236L288 237L287 236M665 236L666 237L665 236M284 237L285 238L284 237M286 237L287 238L286 237M664 237L665 238L664 237M666 237L667 238L666 237M285 238L286 239L285 238M665 238L666 239L665 238M667 239L668 240L667 239M282 240L281 241L281 242L282 243L283 243L284 242L284 241L282 240M666 240L667 241L666 240z"/>
<path style="fill:#a8a8a8; stroke:none;" d="M282 241L283 242L282 241z"/>
<path style="fill:#bfbfbf; stroke:none;" d="M281 242L276 252L277 252L281 242z"/>
<path style="fill:#e4e4e4; stroke:none;" d="M669 242L670 243L669 242M668 243L669 244L668 243M279 244L280 245L279 244M670 244L671 245L670 244M280 245L281 246L280 245M669 245L670 246L669 245M671 246L672 247L671 246M277 247L278 248L277 247M670 247L671 248L670 247M278 248L279 249L278 248M672 248L673 249L672 248M276 249L277 250L276 249M671 249L672 250L671 249M277 250L278 251L277 250M673 250L674 251L673 250M275 251L277 253L275 251M672 251L673 252L672 251z"/>
<path style="fill:#a8a8a8; stroke:none;" d="M275 252L276 253L275 252M673 252L674 253L673 252z"/>
<path style="fill:#e4e4e4; stroke:none;" d="M674 252L673 255L674 255L674 252M274 253L276 255L274 253z"/>
<path style="fill:#bfbfbf; stroke:none;" d="M275 253L276 254L275 253M674 253L675 254L674 253z"/>
<path style="fill:#a8a8a8; stroke:none;" d="M274 254L275 255L274 254M674 254L675 255L674 254z"/>
<path style="fill:#e4e4e4; stroke:none;" d="M273 255L275 257L273 255z"/>
<path style="fill:#bfbfbf; stroke:none;" d="M274 255L275 256L274 255M674 255L676 257L674 255z"/>
<path style="fill:#e4e4e4; stroke:none;" d="M675 255L676 256L675 255z"/>
<path style="fill:#bfbfbf; stroke:none;" d="M273 256L271 261L272 261L273 256z"/>
<path style="fill:#e4e4e4; stroke:none;" d="M674 256L675 257L674 256M272 257L273 258L272 257z"/>
<path style="fill:#a8a8a8; stroke:none;" d="M675 257L676 258L675 257z"/>
<path style="fill:#e4e4e4; stroke:none;" d="M273 258L274 259L273 258z"/>
<path style="fill:#bfbfbf; stroke:none;" d="M675 258L677 260L675 258z"/>
<path style="fill:#e4e4e4; stroke:none;" d="M676 258L677 259L676 258M271 259L272 260L271 259M675.333 259.667L675.667 260.333L675.333 259.667M272.333 260.667L272.667 261.333L272.333 260.667z"/>
<path style="fill:#a8a8a8; stroke:none;" d="M676.333 260.667L676.667 261.333L676.333 260.667M271 261L272 262L271 261z"/>
<path style="fill:#e4e4e4; stroke:none;" d="M677 261L676 264L677 261M270 262L272 264L270 262z"/>
<path style="fill:#bfbfbf; stroke:none;" d="M271 262L272 263L271 262M676 262L677 263L676 262M270 263L271 264L270 263M677 263L678 264L677 263z"/>
<path style="fill:#a8a8a8; stroke:none;" d="M270 264L271 265L270 264M677.333 264.667L677.667 265.333L677.333 264.667z"/>
<path style="fill:#e4e4e4; stroke:none;" d="M269 265L270 268L271 268L269 265z"/>
<path style="fill:#bfbfbf; stroke:none;" d="M270 265L271 266L270 265z"/>
<path style="fill:#e4e4e4; stroke:none;" d="M678.333 265.667L678.667 266.333L678.333 265.667z"/>
<path style="fill:#bfbfbf; stroke:none;" d="M269 266L270 267L269 266M677 266L679 269L677 266z"/>
<path style="fill:#a8a8a8; stroke:none;" d="M269.333 267.667L269.667 268.333L269.333 267.667z"/>
<path style="fill:#e4e4e4; stroke:none;" d="M268 268L269 272L270 272L268 268M677 268L678 269L677 268z"/>
<path style="fill:#bfbfbf; stroke:none;" d="M269 269L270 270L269 269z"/>
<path style="fill:#a8a8a8; stroke:none;" d="M678.333 269.667L678.667 270.333L678.333 269.667z"/>
<path style="fill:#bfbfbf; stroke:none;" d="M268.333 270.667L268.667 271.333L268.333 270.667M678 271L679 278L680 278L678 271z"/>
<path style="fill:#e4e4e4; stroke:none;" d="M679.333 271.667L679.667 272.333L679.333 271.667z"/>
<path style="fill:#a8a8a8; stroke:none;" d="M268 272L269 273L268 272z"/>
<path style="fill:#e4e4e4; stroke:none;" d="M267 273L268 277L269 277L267 273z"/>
<path style="fill:#bfbfbf; stroke:none;" d="M268.333 273.667L268.667 274.333L268.333 273.667M267.333 275.667L267.667 276.333L267.333 275.667z"/>
<path style="fill:#e4e4e4; stroke:none;" d="M678 275L678 278L679 278L678 275z"/>
<path style="fill:#a8a8a8; stroke:none;" d="M267.333 277.667L267.667 278.333L267.333 277.667M679.333 278.667L679.667 279.333L679.333 278.667z"/>
<path style="fill:#e4e4e4; stroke:none;" d="M266 279L266 282L267 282L266 279z"/>
<path style="fill:#bfbfbf; stroke:none;" d="M267 279L266 290L267 290L267 279M595 280L595 284L596 284L595 280z"/>
<path style="fill:#e4e4e4; stroke:none;" d="M596 280L596 284L650 284L680 285L679 280L596 280z"/>
<path style="fill:#bfbfbf; stroke:none;" d="M679 280L679 284L680 284L679 280z"/>
<path style="fill:#e4e4e4; stroke:none;" d="M267 284L266 291L350 291L350 286L293 286C285.007 286 274.156 287.98 267 284z"/>
<path style="fill:#999999; stroke:none;" d="M587 285L587 304L588 304L588 294L592 294L592 293L588 293L587 285z"/>
<path style="fill:#bfbfbf; stroke:none;" d="M588 285L588 293C592.923 292.231 594.631 289.878 595 285L588 285M350 286L350 291L351 291L350 286z"/>
<path style="fill:#a8a8a8; stroke:none;" d="M861 289L862 290L861 289M596 298L596 290C591.51 292.388 591.468 295.653 596 298z"/>
<path style="fill:#bfbfbf; stroke:none;" d="M866 295L866 293C847.198 285.34 820.19 290 800 290L657 290L609 290C605.596 290 594.207 288.362 594.207 294C594.207 299.638 605.596 298 609 298L657 298L800 298C820.19 298 847.198 302.66 866 295z"/>
<path style="fill:#a8a8a8; stroke:none;" d="M860 290L861 291L860 290M863 290L864 291L863 290z"/>
<path style="fill:#bfbfbf; stroke:none;" d="M351 291L351 296L344 296L345 301L341 303L343 296L99 296L37 296C28.3842 296 18.0766 294.165 11 300C20.7726 305.676 32.05 304 43 304L105 304L340 304L340 372L341 405L487 405C479.065 393.775 465.296 397 453 397L375 397C362.312 397 350.592 394.522 341 404C354.062 385.364 348 353.554 348 331C348 322.099 349.531 311.561 347 303L354 304L359 291L351 291z"/>
<path style="fill:#999999; stroke:none;" d="M359 291L359 296L488 296L488 314L489 314L489 295L360 295L359 291z"/>
<path style="fill:#a8a8a8; stroke:none;" d="M862 291L863 292L862 291M864.333 291.667L864.667 292.333L864.333 291.667z"/>
<path style="fill:#999999; stroke:none;" d="M865 292L866 293L865 292z"/>
<path style="fill:#a8a8a8; stroke:none;" d="M866 292L866 296L867 296L866 292z"/>
<path style="fill:#bfbfbf; stroke:none;" d="M588 294L588 304L595 304C594.829 298.718 593.282 295.5 588 294z"/>
<path style="fill:#a8a8a8; stroke:none;" d="M868 294L869 295L868 294z"/>
<path style="fill:#bfbfbf; stroke:none;" d="M865 571C853.256 560.141 822.458 566 807 566L650 566L612 566C607.844 566 600.199 564.54 596.637 567.028C592.146 570.165 592.014 577.163 592 582L875 582L872 578L877 581L877 294C872.163 294.014 865.165 294.146 862.028 298.637C859.54 302.199 861 309.844 861 314L861 354L861 508C861 525.891 855.35 555.659 865 571z"/>
<path style="fill:#a8a8a8; stroke:none;" d="M16.3333 295.667L16.6667 296.333L16.3333 295.667M358 295L355 300L358 295z"/>
<path style="fill:#bfbfbf; stroke:none;" d="M489 295L490 296L489 295z"/>
<path style="fill:#a8a8a8; stroke:none;" d="M864.333 295.667L864.667 296.333L864.333 295.667z"/>
<path style="fill:#999999; stroke:none;" d="M865 295L866 296L865 295z"/>
<path style="fill:#a8a8a8; stroke:none;" d="M14.3333 296.667L14.6667 297.333L14.3333 296.667z"/>
<path style="fill:#999999; stroke:none;" d="M15 296L16 297L15 296z"/>
<path style="fill:#a8a8a8; stroke:none;" d="M351 296L354 299L351 296z"/>
<path style="fill:#bfbfbf; stroke:none;" d="M355 304L451 304C463.661 304 478.83 307.557 487 296L386 296C376.777 296 356.894 291.766 355 304z"/>
<path style="fill:#a8a8a8; stroke:none;" d="M487 296L480 304C483.435 302.393 487.086 300.074 487 296M862.333 296.667L862.667 297.333L862.333 296.667z"/>
<path style="fill:#999999; stroke:none;" d="M863 296L864 297L863 296z"/>
<path style="fill:#a8a8a8; stroke:none;" d="M12.3333 297.667L12.6667 298.333L12.3333 297.667z"/>
<path style="fill:#999999; stroke:none;" d="M13 297L14 298L13 297z"/>
<path style="fill:#a8a8a8; stroke:none;" d="M860 297L861 298L860 297z"/>
<path style="fill:#999999; stroke:none;" d="M861 297L862 298L861 297z"/>
<path style="fill:#a8a8a8; stroke:none;" d="M10.3333 298.667L10.6667 299.333L10.3333 298.667z"/>
<path style="fill:#999999; stroke:none;" d="M11 298L12 299L11 298z"/>
<path style="fill:#bfbfbf; stroke:none;" d="M487 298C481.921 303.25 481.001 306.873 481 314L488 314L487 298z"/>
<path style="fill:#999999; stroke:none;" d="M595 298L595 304L596 304L596 299L860 299L860 565L596 565L596 389L595 389L595 567L625 566L681 566L861 566L861 298L595 298M354 299L354 304L348 304L348 397L481 397L481 390L480 390L480 396L349 396L349 305L480 305L480 314L481 314L481 304L355 304L354 299z"/>
<path style="fill:#f2f2f2; stroke:none;" d="M596 299L596 304L680 304C680 350.099 642.591 389 596 389L596 565L860 565L860 299L596 299z"/>
<path style="fill:#bfbfbf; stroke:none;" d="M1 300L1 555L17 555L17 359L17 320C17 315.844 18.4601 308.199 15.9722 304.637C12.8351 300.146 5.83727 300.014 1 300z"/>
<path style="fill:#a8a8a8; stroke:none;" d="M9 300L10 301L9 300M11.3333 300.667L11.6667 301.333L11.3333 300.667M341 303L345 301L341 303z"/>
<path style="fill:#999999; stroke:none;" d="M12 301L13 302L12 301z"/>
<path style="fill:#a8a8a8; stroke:none;" d="M13.3333 301.667L13.6667 302.333L13.3333 301.667M345 301L347 303L345 301z"/>
<path style="fill:#999999; stroke:none;" d="M14 302L15 303L14 302z"/>
<path style="fill:#a8a8a8; stroke:none;" d="M15.3333 302.667L15.6667 303.333L15.3333 302.667M17 303L18 304L17 303M340 303L341 304L340 303M347.667 303.333L348.333 303.667L347.667 303.333M587 304L587 389L596 389L596 308L595 308L595 388L588 388L588 305L596 305L587 304z"/>
<path style="fill:#e4e4e4; stroke:none;" d="M596 304L596 309L679 309L680 304L596 304z"/>
<path style="fill:#f2f2f2; stroke:none;" d="M18 305L18 555L343 555L343 406L339 406L339 305L18 305M349 305L349 396L480 396L480 389L430 389L404 390C404.115 348.127 438.268 313.861 480 313L480 305L349 305M588 305L588 388L595 388L595 305L588 305z"/>
<path style="fill:#bfbfbf; stroke:none;" d="M595 305L595 308L596 308L595 305M679 305L679 309L680 309L679 305z"/>
<path style="fill:#f2f2f2; stroke:none;" d="M596 309L596 387C628.37 387 658.126 369.084 671.688 339C676.105 329.202 676.568 319.209 679 309L596 309z"/>
<path style="fill:#a8a8a8; stroke:none;" d="M679 309L680 310L679 309z"/>
<path style="fill:#e4e4e4; stroke:none;" d="M678 310L678 314L679 314L678 310z"/>
<path style="fill:#bfbfbf; stroke:none;" d="M679 310L678 318L679 318L679 310z"/>
<path style="fill:#e4e4e4; stroke:none;" d="M473 313L473 314L480 314L473 313M465.667 314.333L466.333 314.667L465.667 314.333z"/>
<path style="fill:#bfbfbf; stroke:none;" d="M466 315L466 316L470 315L466 315z"/>
<path style="fill:#a8a8a8; stroke:none;" d="M470 314L470 315L474 315L470 314z"/>
<path style="fill:#bfbfbf; stroke:none;" d="M474 314L474 315L480 315L474 314z"/>
<path style="fill:#a8a8a8; stroke:none;" d="M480 314L480 385L481 385L481 315L488 315L488 389L480 389L480 390L489 390L489 314L480 314z"/>
<path style="fill:#e4e4e4; stroke:none;" d="M460.667 315.333L461.333 315.667L460.667 315.333z"/>
<path style="fill:#bfbfbf; stroke:none;" d="M461 317L464 315L461 317z"/>
<path style="fill:#a8a8a8; stroke:none;" d="M464.667 315.333L465.333 315.667L464.667 315.333z"/>
<path style="fill:#e4e4e4; stroke:none;" d="M469.667 315.333L470.333 315.667L469.667 315.333z"/>
<path style="fill:#f2f2f2; stroke:none;" d="M406 385L480 385L480 315C441.953 315.025 406.325 345.687 406 385M481 315L481 389L488 389L488 315L481 315z"/>
<path style="fill:#e4e4e4; stroke:none;" d="M679 315L679 318L680 318L679 315M457 316L458 317L457 316z"/>
<path style="fill:#bfbfbf; stroke:none;" d="M458.333 316.667L458.667 317.333L458.333 316.667z"/>
<path style="fill:#a8a8a8; stroke:none;" d="M459.667 316.333L460.333 316.667L459.667 316.333z"/>
<path style="fill:#e4e4e4; stroke:none;" d="M463.667 316.333L464.333 316.667L463.667 316.333M454 317L455 318L454 317z"/>
<path style="fill:#bfbfbf; stroke:none;" d="M455 317L454 319L456 319L455 317z"/>
<path style="fill:#a8a8a8; stroke:none;" d="M456.667 317.333L457.333 317.667L456.667 317.333z"/>
<path style="fill:#e4e4e4; stroke:none;" d="M459 317L460 318L459 317M451 318L451 319L454 320L451 318z"/>
<path style="fill:#a8a8a8; stroke:none;" d="M453 318L454 319L453 318z"/>
<path style="fill:#e4e4e4; stroke:none;" d="M456 318L457 319L456 318z"/>
<path style="fill:#a8a8a8; stroke:none;" d="M678 318L679 319L678 318z"/>
<path style="fill:#e4e4e4; stroke:none;" d="M449 319L452 321L452 320L449 319z"/>
<path style="fill:#bfbfbf; stroke:none;" d="M450 319L451 320L450 319z"/>
<path style="fill:#a8a8a8; stroke:none;" d="M451 319L452 320L451 319z"/>
<path style="fill:#bfbfbf; stroke:none;" d="M452 319L453 320L452 319z"/>
<path style="fill:#e4e4e4; stroke:none;" d="M677.333 319.667L677.667 320.333L677.333 319.667z"/>
<path style="fill:#bfbfbf; stroke:none;" d="M678 319L677 323L678 323L678 319z"/>
<path style="fill:#e4e4e4; stroke:none;" d="M447 320L449 322L447 320z"/>
<path style="fill:#bfbfbf; stroke:none;" d="M448 320L449 321L448 320z"/>
<path style="fill:#a8a8a8; stroke:none;" d="M449 320L450 321L449 320z"/>
<path style="fill:#e4e4e4; stroke:none;" d="M445 321L447 323L445 321z"/>
<path style="fill:#bfbfbf; stroke:none;" d="M446.667 321.333L447.333 321.667L446.667 321.333z"/>
<path style="fill:#e4e4e4; stroke:none;" d="M443 322L445 324L443 322z"/>
<path style="fill:#bfbfbf; stroke:none;" d="M444.667 322.333L445.333 322.667L444.667 322.333z"/>
<path style="fill:#e4e4e4; stroke:none;" d="M678 322L679 323L678 322M441 323L441 326L442 326L441 323z"/>
<path style="fill:#bfbfbf; stroke:none;" d="M442 323L443 324L442 323z"/>
<path style="fill:#a8a8a8; stroke:none;" d="M443 323L444 324L443 323M677 323L678 324L677 323z"/>
<path style="fill:#bfbfbf; stroke:none;" d="M440 324L437 328L440 324z"/>
<path style="fill:#a8a8a8; stroke:none;" d="M441 324L442 325L441 324z"/>
<path style="fill:#e4e4e4; stroke:none;" d="M676 324L677 328L678 328L676 324z"/>
<path style="fill:#bfbfbf; stroke:none;" d="M677.333 324.667L677.667 325.333L677.333 324.667z"/>
<path style="fill:#e4e4e4; stroke:none;" d="M438 325L439 326L438 325M437 326L438 327L437 326M439 326L440 327L439 326z"/>
<path style="fill:#bfbfbf; stroke:none;" d="M676 326L677 327L676 326z"/>
<path style="fill:#e4e4e4; stroke:none;" d="M435 327L433 330L437 329L437 328L435 327z"/>
<path style="fill:#a8a8a8; stroke:none;" d="M436 327L437 328L436 327M676 327L677 328L676 327M435 328L436 329L435 328z"/>
<path style="fill:#e4e4e4; stroke:none;" d="M675 328L676 329L675 328z"/>
<path style="fill:#bfbfbf; stroke:none;" d="M676 328L675 331L676 328M434 329L435 330L434 329z"/>
<path style="fill:#e4e4e4; stroke:none;" d="M431 330L423 341L433 331L431 330z"/>
<path style="fill:#bfbfbf; stroke:none;" d="M432.667 330.333L433.333 330.667L432.667 330.333z"/>
<path style="fill:#e4e4e4; stroke:none;" d="M676 330L677 331L676 330z"/>
<path style="fill:#bfbfbf; stroke:none;" d="M431 331L424 339L431 331z"/>
<path style="fill:#e4e4e4; stroke:none;" d="M674 331L676 334L674 331z"/>
<path style="fill:#a8a8a8; stroke:none;" d="M675 331L676 332L675 331z"/>
<path style="fill:#bfbfbf; stroke:none;" d="M675 332L676 333L675 332M674 333L673 336L674 333z"/>
<path style="fill:#e4e4e4; stroke:none;" d="M673 334L674 335L673 334M674.333 335.667L674.667 336.333L674.333 335.667z"/>
<path style="fill:#a8a8a8; stroke:none;" d="M673 336L674 337L673 336z"/>
<path style="fill:#e4e4e4; stroke:none;" d="M672 337L674 339L672 337z"/>
<path style="fill:#bfbfbf; stroke:none;" d="M673 337L674 338L673 337M672 338L669 346L670 346L672 338M423 339L424 340L423 339z"/>
<path style="fill:#e4e4e4; stroke:none;" d="M671 339L672 340L671 339z"/>
<path style="fill:#bfbfbf; stroke:none;" d="M422 340L418 347L419 347L422 340z"/>
<path style="fill:#e4e4e4; stroke:none;" d="M672 340L673 341L672 340M670 341L671 342L670 341M420 342L421 343L420 342M671 342L672 343L671 342M419 343L420 344L419 343M669 343L670 344L669 343M418 344L419 345L418 344M420 344L421 345L420 344M670 344L671 345L670 344M419 345L420 346L419 345M668 345L670 347L668 345M417 346L416 347L416 348L417 349L418 349L419 348L419 347L417 346z"/>
<path style="fill:#a8a8a8; stroke:none;" d="M668 346L669 347L668 346M417 347L418 348L417 347z"/>
<path style="fill:#bfbfbf; stroke:none;" d="M667 347L643 374C653.927 368.422 662.999 357.533 669 347L667 347M416 348L410 360L411 360L416 348z"/>
<path style="fill:#e4e4e4; stroke:none;" d="M666 348L667 349L666 348M415 349L416 350L415 349M667 349L668 350L667 349M414 350L415 351L414 350M665 350L666 351L665 350M415 351L416 352L415 351M664 351L665 352L664 351M413 352L414 353L413 352M665 352L666 353L665 352M414 353L415 354L414 353M664 353L665 354L664 353M412 354L413 355L412 354M662 354L663 355L662 354M413 355L414 356L413 355M661 355L662 356L661 355M663 355L664 356L663 355M411 356L412 357L411 356M662 356L663 357L662 356M412 357L413 358L412 357M661 357L662 358L661 357M410 358L411 359L410 358M411 359L412 360L411 359M658 359L659 360L658 359M409 360L410 363L411 363L409 360z"/>
<path style="fill:#a8a8a8; stroke:none;" d="M410 360L411 361L410 360z"/>
<path style="fill:#e4e4e4; stroke:none;" d="M657 360L658 361L657 360z"/>
<path style="fill:#bfbfbf; stroke:none;" d="M409 361L410 362L409 361z"/>
<path style="fill:#e4e4e4; stroke:none;" d="M656 361L657 362L656 361z"/>
<path style="fill:#a8a8a8; stroke:none;" d="M409 362L410 363L409 362z"/>
<path style="fill:#e4e4e4; stroke:none;" d="M655 362L656 363L655 362M657 362L658 363L657 362M408 363L410 365L408 363z"/>
<path style="fill:#bfbfbf; stroke:none;" d="M409 363L410 364L409 363z"/>
<path style="fill:#e4e4e4; stroke:none;" d="M654 363L655 364L654 363M656 363L657 364L656 363z"/>
<path style="fill:#bfbfbf; stroke:none;" d="M408 364L409 365L408 364z"/>
<path style="fill:#e4e4e4; stroke:none;" d="M653 364L654 365L653 364M655 364L656 365L655 364z"/>
<path style="fill:#a8a8a8; stroke:none;" d="M408 365L409 366L408 365z"/>
<path style="fill:#e4e4e4; stroke:none;" d="M652 365L653 366L652 365M407 366L408 369L409 369L407 366z"/>
<path style="fill:#bfbfbf; stroke:none;" d="M408 366L409 367L408 366z"/>
<path style="fill:#e4e4e4; stroke:none;" d="M651 366L652 367L651 366z"/>
<path style="fill:#bfbfbf; stroke:none;" d="M407 367L408 368L407 367z"/>
<path style="fill:#a8a8a8; stroke:none;" d="M407.333 368.667L407.667 369.333L407.333 368.667z"/>
<path style="fill:#e4e4e4; stroke:none;" d="M648 368L649 369L648 368M406 369L407 373L408 373L406 369M647 369L648 370L647 369M649 369L650 370L649 369z"/>
<path style="fill:#bfbfbf; stroke:none;" d="M407 370L408 371L407 370z"/>
<path style="fill:#e4e4e4; stroke:none;" d="M646 370L647 371L646 370M648 370L649 371L648 370z"/>
<path style="fill:#bfbfbf; stroke:none;" d="M406 371L407 372L406 371z"/>
<path style="fill:#e4e4e4; stroke:none;" d="M647 371L648 372L647 371z"/>
<path style="fill:#a8a8a8; stroke:none;" d="M406.333 372.667L406.667 373.333L406.333 372.667z"/>
<path style="fill:#e4e4e4; stroke:none;" d="M643 372L644 373L643 372M642 373L644 375L642 373M644 373L645 374L644 373M405 374L406 378L407 378L405 374z"/>
<path style="fill:#bfbfbf; stroke:none;" d="M406.333 374.667L406.667 375.333L406.333 374.667M641 374L642 375L641 374z"/>
<path style="fill:#a8a8a8; stroke:none;" d="M642 374L643 375L642 374z"/>
<path style="fill:#e4e4e4; stroke:none;" d="M639 375L639 376L642 376L642 375L639 375z"/>
<path style="fill:#a8a8a8; stroke:none;" d="M640 375L641 376L640 375z"/>
<path style="fill:#bfbfbf; stroke:none;" d="M405.333 376.667L405.667 377.333L405.333 376.667z"/>
<path style="fill:#e4e4e4; stroke:none;" d="M637 376L639 378L637 376z"/>
<path style="fill:#bfbfbf; stroke:none;" d="M638.667 376.333L639.333 376.667L638.667 376.333z"/>
<path style="fill:#e4e4e4; stroke:none;" d="M635 377L635 380L636 380L635 377z"/>
<path style="fill:#bfbfbf; stroke:none;" d="M636.333 377.667L636.667 378.333L636.333 377.667z"/>
<path style="fill:#a8a8a8; stroke:none;" d="M637 377L638 378L637 377M405 378L405 381L406 381L405 378M635 378L636 379L635 378z"/>
<path style="fill:#e4e4e4; stroke:none;" d="M632 379L634 381L632 379z"/>
<path style="fill:#a8a8a8; stroke:none;" d="M633 379L634 380L633 379z"/>
<path style="fill:#bfbfbf; stroke:none;" d="M634 379L635 380L634 379z"/>
<path style="fill:#e4e4e4; stroke:none;" d="M630 380L632 382L630 380z"/>
<path style="fill:#a8a8a8; stroke:none;" d="M631 380L632 381L631 380z"/>
<path style="fill:#bfbfbf; stroke:none;" d="M632 380L633 381L632 380z"/>
<path style="fill:#e4e4e4; stroke:none;" d="M404 381L404 384L405 384L404 381z"/>
<path style="fill:#bfbfbf; stroke:none;" d="M405 381L404 389L405 389L405 381z"/>
<path style="fill:#e4e4e4; stroke:none;" d="M627 381L630 383L630 382L627 381z"/>
<path style="fill:#bfbfbf; stroke:none;" d="M628 381L629 382L628 381z"/>
<path style="fill:#a8a8a8; stroke:none;" d="M629 381L630 382L629 381z"/>
<path style="fill:#bfbfbf; stroke:none;" d="M630 381L631 382L630 381z"/>
<path style="fill:#e4e4e4; stroke:none;" d="M625 382L627 384L625 382z"/>
<path style="fill:#bfbfbf; stroke:none;" d="M626 382L627 383L626 382z"/>
<path style="fill:#a8a8a8; stroke:none;" d="M627 382L628 383L627 382z"/>
<path style="fill:#e4e4e4; stroke:none;" d="M622 383L623 384L622 383z"/>
<path style="fill:#bfbfbf; stroke:none;" d="M623 383L622 385L624 385L623 383z"/>
<path style="fill:#a8a8a8; stroke:none;" d="M624 383L625 384L624 383z"/>
<path style="fill:#bfbfbf; stroke:none;" d="M625 383L626 384L625 383z"/>
<path style="fill:#e4e4e4; stroke:none;" d="M619 384L620 385L619 384z"/>
<path style="fill:#bfbfbf; stroke:none;" d="M620 384L619 386L621 386L620 384z"/>
<path style="fill:#a8a8a8; stroke:none;" d="M621 384L622 385L621 384z"/>
<path style="fill:#e4e4e4; stroke:none;" d="M624 384L625 385L624 384M405 385L405 389L480 389L480 385L405 385z"/>
<path style="fill:#bfbfbf; stroke:none;" d="M480 385L480 389L481 389L480 385z"/>
<path style="fill:#e4e4e4; stroke:none;" d="M614.667 385.333L615.333 385.667L614.667 385.333z"/>
<path style="fill:#bfbfbf; stroke:none;" d="M615 387L618 385L615 387z"/>
<path style="fill:#a8a8a8; stroke:none;" d="M618 385L619 386L618 385z"/>
<path style="fill:#e4e4e4; stroke:none;" d="M621 385L622 386L621 385M610 386L611 387L610 386z"/>
<path style="fill:#bfbfbf; stroke:none;" d="M610 387L610 388L614 387L610 387z"/>
<path style="fill:#a8a8a8; stroke:none;" d="M614 386L615 387L614 386z"/>
<path style="fill:#e4e4e4; stroke:none;" d="M617 386L618 387L617 386M596 387L596 388L604 388L596 387z"/>
<path style="fill:#bfbfbf; stroke:none;" d="M596 388L596 389L608 388L596 388z"/>
<path style="fill:#a8a8a8; stroke:none;" d="M608.667 387.333L609.333 387.667L608.667 387.333z"/>
<path style="fill:#e4e4e4; stroke:none;" d="M613 387L614 388L613 387M606.667 388.333L607.333 388.667L606.667 388.333M404 389L405 390L404 389z"/>
<path style="fill:#999999; stroke:none;" d="M587 389L587 565L576 565L576 566L588 567L588 442L588 406L587 389z"/>
<path style="fill:#bfbfbf; stroke:none;" d="M588 389L588 518C588 533.489 583.317 558.285 591 572L592 572C599.683 558.285 595 533.489 595 518L595 389L588 389M481 390C481.072 396.119 482.992 399.43 488 403L488 390L481 390z"/>
<path style="fill:#a8a8a8; stroke:none;" d="M347 396L341 404L347 396M480 397L488 405L480 397M340 404L341 405L340 404M343 404L344 405L343 404M339 405L340 406L339 405z"/>
<path style="fill:#e4e4e4; stroke:none;" d="M489 405L490 406L489 405M568 481L568 482L571 482L571 546C571 548.658 569.444 565.95 573.83 565.079C577.927 564.265 576 548.249 576 545L576 481L568 481M560.667 482.333L561.333 482.667L560.667 482.333z"/>
<path style="fill:#bfbfbf; stroke:none;" d="M560 483L560 484L565 483L560 483z"/>
<path style="fill:#a8a8a8; stroke:none;" d="M565 482L565 483L569 483L565 482z"/>
<path style="fill:#bfbfbf; stroke:none;" d="M569.667 482.333L570.333 482.667L569.667 482.333z"/>
<path style="fill:#e4e4e4; stroke:none;" d="M555 483L556 484L555 483z"/>
<path style="fill:#bfbfbf; stroke:none;" d="M555 485L558 483L555 485z"/>
<path style="fill:#a8a8a8; stroke:none;" d="M558.667 483.333L559.333 483.667L558.667 483.333z"/>
<path style="fill:#e4e4e4; stroke:none;" d="M563 483L563 484L566 484L563 483z"/>
<path style="fill:#f2f2f2; stroke:none;" d="M493 565L571 565L571 483C527.217 484.88 493 521.665 493 565z"/>
<path style="fill:#e4e4e4; stroke:none;" d="M551 484L552 485L551 484z"/>
<path style="fill:#bfbfbf; stroke:none;" d="M552 484L552 486L554 484L552 484z"/>
<path style="fill:#a8a8a8; stroke:none;" d="M554 484L555 485L554 484z"/>
<path style="fill:#e4e4e4; stroke:none;" d="M557.667 484.333L558.333 484.667L557.667 484.333M548 485L549 486L548 485z"/>
<path style="fill:#bfbfbf; stroke:none;" d="M549 485L548 487L550 487L549 485z"/>
<path style="fill:#a8a8a8; stroke:none;" d="M550.667 485.333L551.333 485.667L550.667 485.333z"/>
<path style="fill:#e4e4e4; stroke:none;" d="M553.667 485.333L554.333 485.667L553.667 485.333M545 486L548 488L548 487L545 486z"/>
<path style="fill:#bfbfbf; stroke:none;" d="M546 486L547 487L546 486z"/>
<path style="fill:#a8a8a8; stroke:none;" d="M547 486L548 487L547 486z"/>
<path style="fill:#e4e4e4; stroke:none;" d="M550 486L551 487L550 486M543 487L545 489L543 487z"/>
<path style="fill:#bfbfbf; stroke:none;" d="M544 487L545 488L544 487z"/>
<path style="fill:#a8a8a8; stroke:none;" d="M545 487L546 488L545 487z"/>
<path style="fill:#e4e4e4; stroke:none;" d="M540 488L541 489L540 488z"/>
<path style="fill:#bfbfbf; stroke:none;" d="M541.333 488.667L541.667 489.333L541.333 488.667z"/>
<path style="fill:#a8a8a8; stroke:none;" d="M542 488L543 489L542 488z"/>
<path style="fill:#bfbfbf; stroke:none;" d="M543 488L544 489L543 488z"/>
<path style="fill:#e4e4e4; stroke:none;" d="M538 489L540 491L538 489z"/>
<path style="fill:#bfbfbf; stroke:none;" d="M539 489L540 490L539 489z"/>
<path style="fill:#a8a8a8; stroke:none;" d="M540 489L541 490L540 489z"/>
<path style="fill:#e4e4e4; stroke:none;" d="M542 489L543 490L542 489M536 490L538 492L536 490z"/>
<path style="fill:#bfbfbf; stroke:none;" d="M537 490L538 491L537 490z"/>
<path style="fill:#a8a8a8; stroke:none;" d="M538 490L539 491L538 490z"/>
<path style="fill:#e4e4e4; stroke:none;" d="M534 491L536 493L534 491z"/>
<path style="fill:#bfbfbf; stroke:none;" d="M535 491L536 492L535 491z"/>
<path style="fill:#a8a8a8; stroke:none;" d="M536 491L537 492L536 491z"/>
<path style="fill:#bfbfbf; stroke:none;" d="M530 494L530 495L535 493L530 494z"/>
<path style="fill:#e4e4e4; stroke:none;" d="M531 493L532 494L531 493M529 494L528 495L528 496L529 497L530 497L531 496L531 495L529 494M532 494L533 495L532 494z"/>
<path style="fill:#a8a8a8; stroke:none;" d="M529 495L530 496L529 495z"/>
<path style="fill:#bfbfbf; stroke:none;" d="M527.667 496.333L528.333 496.667L527.667 496.333z"/>
<path style="fill:#e4e4e4; stroke:none;" d="M524 498L524 499L528 498L524 498z"/>
<path style="fill:#a8a8a8; stroke:none;" d="M526 497L527 498L526 497z"/>
<path style="fill:#bfbfbf; stroke:none;" d="M525 498L526 499L525 498M522 501L525 500L522 501z"/>
<path style="fill:#e4e4e4; stroke:none;" d="M521 500L510 514L523 501L521 500M523 500L524 501L523 500z"/>
<path style="fill:#a8a8a8; stroke:none;" d="M521 501L522 502L521 501z"/>
<path style="fill:#bfbfbf; stroke:none;" d="M520 502L521 503L520 502M519 503L520 504L519 503M518 504L519 505L518 504M517 505L518 506L517 505M516 506L517 507L516 506M515 507L512 511L515 507M511 511L512 512L511 511M510 512L511 513L510 512M509 513L506 519L507 519L509 513z"/>
<path style="fill:#e4e4e4; stroke:none;" d="M508 514L509 515L508 514M507 515L508 516L507 515M509 515L510 516L509 515M506 516L507 517L506 516M508 516L509 517L508 516M507 517L508 518L507 517M505 518L504 519L504 520L505 521L506 521L507 520L507 519L505 518z"/>
<path style="fill:#a8a8a8; stroke:none;" d="M505 519L506 520L505 519z"/>
<path style="fill:#bfbfbf; stroke:none;" d="M504.333 520.667L504.667 521.333L504.333 520.667z"/>
<path style="fill:#e4e4e4; stroke:none;" d="M503 521L502 522L502 523L503 524L504 524L505 523L505 522L503 521z"/>
<path style="fill:#a8a8a8; stroke:none;" d="M503 522L504 523L503 522z"/>
<path style="fill:#bfbfbf; stroke:none;" d="M502 523L497 534L498 534L502 523z"/>
<path style="fill:#e4e4e4; stroke:none;" d="M501 524L502 525L501 524M502 525L503 526L502 525M500 526L501 527L500 526M501 527L502 528L501 527M499 528L500 529L499 528M500 529L501 530L500 529M498 530L499 531L498 530M499 531L500 532L499 531M497 532L498 533L497 532M498 533L499 534L498 533M496 534L498 537L496 534z"/>
<path style="fill:#a8a8a8; stroke:none;" d="M497 534L498 535L497 534z"/>
<path style="fill:#bfbfbf; stroke:none;" d="M497 535L498 536L497 535M496 536L497 537L496 536z"/>
<path style="fill:#e4e4e4; stroke:none;" d="M495 537L496 540L497 540L495 537z"/>
<path style="fill:#a8a8a8; stroke:none;" d="M496 537L497 538L496 537z"/>
<path style="fill:#bfbfbf; stroke:none;" d="M495 538L496 539L495 538z"/>
<path style="fill:#a8a8a8; stroke:none;" d="M495 539L496 540L495 539z"/>
<path style="fill:#e4e4e4; stroke:none;" d="M494 540L496 543L494 540z"/>
<path style="fill:#bfbfbf; stroke:none;" d="M495.333 540.667L495.667 541.333L495.333 540.667M494 542L495 543L494 542z"/>
<path style="fill:#a8a8a8; stroke:none;" d="M494 543L495 544L494 543z"/>
<path style="fill:#e4e4e4; stroke:none;" d="M493 544L494 547L495 547L493 544z"/>
<path style="fill:#bfbfbf; stroke:none;" d="M494 544L495 545L494 544M493.333 545.667L493.667 546.333L493.333 545.667z"/>
<path style="fill:#a8a8a8; stroke:none;" d="M493 547L494 548L493 547z"/>
<path style="fill:#e4e4e4; stroke:none;" d="M492 548L493 553L494 553L492 548z"/>
<path style="fill:#bfbfbf; stroke:none;" d="M493.333 548.667L493.667 549.333L493.333 548.667M492.333 550.667L492.667 551.333L492.333 550.667z"/>
<path style="fill:#a8a8a8; stroke:none;" d="M492.333 552.667L492.667 553.333L492.333 552.667z"/>
<path style="fill:#e4e4e4; stroke:none;" d="M491 554L491 557L492 557L491 554z"/>
<path style="fill:#bfbfbf; stroke:none;" d="M492 554L491 565L492 565L492 554z"/>
<path style="fill:#e4e4e4; stroke:none;" d="M344 555L345 556L344 555z"/>
<path style="fill:#bfbfbf; stroke:none;" d="M1 556L1 849L5 846L3 850L354 850L439 850C444.661 850 464.297 853.037 467.972 848.397C470.895 844.706 469 834.513 469 830L469 779L469 582L491 582L491 566L454 566L454 655L454 835C443.758 831.973 430.662 834 420 834L351 834L125 834L48 834C36.3875 834 23.1018 831.646 13 838C18.5433 831.445 17 823.144 17 815L17 763L17 556L1 556z"/>
<path style="fill:#f2f2f2; stroke:none;" d="M18 556L18 833L453 833L453 575L343 575L343 556L18 556z"/>
<path style="fill:#e4e4e4; stroke:none;" d="M492 559L492 565L493 565L492 559z"/>
<path style="fill:#bfbfbf; stroke:none;" d="M452 565L453 566L452 565z"/>
<path style="fill:#a8a8a8; stroke:none;" d="M491 565L491 583L576 583L576 566L521 566L491 565z"/>
<path style="fill:#999999; stroke:none;" d="M492 565L492 566L571 566L546 565L492 565z"/>
<path style="fill:#bfbfbf; stroke:none;" d="M571 565L572 566L571 565M575 565L576 566L575 565z"/>
<path style="fill:#e4e4e4; stroke:none;" d="M452 566L453 567L452 566z"/>
<path style="fill:#bfbfbf; stroke:none;" d="M576 566L576 582L591 582C590.966 570.33 587.461 566 576 566z"/>
<path style="fill:#a8a8a8; stroke:none;" d="M860 566L865 571L860 566M454 567L455 568L454 567z"/>
<path style="fill:#f2f2f2; stroke:none;" d="M492 567L492 582L575 582L575 567L492 567z"/>
<path style="fill:#a8a8a8; stroke:none;" d="M587.667 567.333L588.333 567.667L587.667 567.333M594.667 567.333L595.333 567.667L594.667 567.333M455 568L469 582L455 568z"/>
<path style="fill:#999999; stroke:none;" d="M588 568L589 569L588 568M594 568L595 569L594 568z"/>
<path style="fill:#a8a8a8; stroke:none;" d="M588.667 569.333L589.333 569.667L588.667 569.333M593.667 569.333L594.333 569.667L593.667 569.333z"/>
<path style="fill:#999999; stroke:none;" d="M589 570L590 571L589 570M593 570L594 571L593 570z"/>
<path style="fill:#a8a8a8; stroke:none;" d="M589.667 571.333L590.333 571.667L589.667 571.333M592.667 571.333L593.333 571.667L592.667 571.333M865 571L872 578L865 571M591 572L592 573L591 572M590 573L591 574L590 573M592 573L593 574L592 573M872 578L877 582L872 578z"/>
<path style="fill:#999999; stroke:none;" d="M469 582L469 850L470 850L470 583L491 583L469 582z"/>
<path style="fill:#f2f2f2; stroke:none;" d="M470 583L470 850L878 850L878 583L470 583z"/>
<path style="fill:#a8a8a8; stroke:none;" d="M13 838L18 834L13 838M453 834L454 835L453 834M454 835L468 849L454 835M12 838L5 846L12 838M4 846L1 850L4 846M468 849L469 850L468 849z"/>
</svg>
